<svg width="361" height="335" viewBox="0 0 361 335" fill="none" xmlns="http://www.w3.org/2000/svg">
<path d="M179.319 287.264C182.609 285.194 199.659 290.094 204.299 286.784C226.909 270.634 253.269 255.564 260.299 228.784C268.559 197.304 265.049 132.584 288.199 117.814C288.199 117.814 325.179 99.3242 341.439 100.064C341.439 100.064 358.449 96.3642 360.299 94.5142L345.509 93.0342L285.609 105.604C285.609 105.604 275.319 107.554 260.049 105.174C249.199 103.484 238.049 104.424 227.829 108.424C214.989 113.444 201.499 123.834 199.049 145.334C197.999 154.574 194.399 163.374 188.429 170.494C186.799 172.434 187.229 172.004 185.939 172.744" fill="white"/>
<path d="M237.539 133.714C241.626 133.714 244.939 130.401 244.939 126.314C244.939 122.227 241.626 118.914 237.539 118.914C233.452 118.914 230.139 122.227 230.139 126.314C230.139 130.401 233.452 133.714 237.539 133.714Z" fill="white"/>
<path d="M237.539 130.014C239.582 130.014 241.239 128.358 241.239 126.314C241.239 124.271 239.582 122.614 237.539 122.614C235.495 122.614 233.839 124.271 233.839 126.314C233.839 128.358 235.495 130.014 237.539 130.014Z" fill="url(#paint0_linear_282_765)"/>
<path d="M119.509 247.304C119.509 247.304 -15.6414 273.764 28.5386 306.904C33.6586 310.744 43.7886 315.524 49.3086 318.774C71.3086 331.774 161.179 354.904 191.309 297.774" fill="white"/>
<path d="M0.248657 12.9443L166.729 153.054C166.729 153.054 274.719 243.654 191.289 297.784C191.299 297.784 -7.99134 220.634 0.248657 12.9443Z" fill="white"/>
<path d="M10.0001 34.9444L151.745 151.025C151.745 151.025 244.165 223.201 202.442 289.83C202.449 289.829 35.9999 246.944 10.0001 34.9444Z" fill="url(#paint1_linear_282_765)" fill-opacity="0.99"/>
<defs>
<linearGradient id="paint0_linear_282_765" x1="237.539" y1="122.614" x2="237.539" y2="130.014" gradientUnits="userSpaceOnUse">
<stop offset="0.173069" stop-color="#2EDAF1"/>
<stop offset="1" stop-color="#1B7E8B"/>
</linearGradient>
<linearGradient id="paint1_linear_282_765" x1="82.0316" y1="21.6535" x2="150.137" y2="302.514" gradientUnits="userSpaceOnUse">
<stop offset="0.605772" stop-color="#2EDAF1"/>
<stop offset="1" stop-color="#1B7E8B"/>
</linearGradient>
</defs>
</svg>
