<svg xmlns="http://www.w3.org/2000/svg" width="1920" height="900" viewBox="0 0 1920 900">
<defs><linearGradient id="base" x1="0" y1="0" x2="1" y2="1"><stop offset="0" stop-color="#FFFFFF"/><stop offset="0.55" stop-color="#F4F7FA"/><stop offset="1" stop-color="#EAF2F8"/></linearGradient></defs>
<rect width="100%" height="100%" fill="url(#base)"/>
<g opacity=".55" stroke="#D8E6F0" stroke-width="1"><line x1="0" y1="0" x2="0" y2="900"/><line x1="80" y1="0" x2="80" y2="900"/><line x1="160" y1="0" x2="160" y2="900"/><line x1="240" y1="0" x2="240" y2="900"/><line x1="320" y1="0" x2="320" y2="900"/><line x1="400" y1="0" x2="400" y2="900"/><line x1="480" y1="0" x2="480" y2="900"/><line x1="560" y1="0" x2="560" y2="900"/><line x1="640" y1="0" x2="640" y2="900"/><line x1="720" y1="0" x2="720" y2="900"/><line x1="800" y1="0" x2="800" y2="900"/><line x1="880" y1="0" x2="880" y2="900"/><line x1="960" y1="0" x2="960" y2="900"/><line x1="1040" y1="0" x2="1040" y2="900"/><line x1="1120" y1="0" x2="1120" y2="900"/><line x1="1200" y1="0" x2="1200" y2="900"/><line x1="1280" y1="0" x2="1280" y2="900"/><line x1="1360" y1="0" x2="1360" y2="900"/><line x1="1440" y1="0" x2="1440" y2="900"/><line x1="1520" y1="0" x2="1520" y2="900"/><line x1="1600" y1="0" x2="1600" y2="900"/><line x1="1680" y1="0" x2="1680" y2="900"/><line x1="1760" y1="0" x2="1760" y2="900"/><line x1="1840" y1="0" x2="1840" y2="900"/><line x1="0" y1="0" x2="1920" y2="0"/><line x1="0" y1="80" x2="1920" y2="80"/><line x1="0" y1="160" x2="1920" y2="160"/><line x1="0" y1="240" x2="1920" y2="240"/><line x1="0" y1="320" x2="1920" y2="320"/><line x1="0" y1="400" x2="1920" y2="400"/><line x1="0" y1="480" x2="1920" y2="480"/><line x1="0" y1="560" x2="1920" y2="560"/><line x1="0" y1="640" x2="1920" y2="640"/><line x1="0" y1="720" x2="1920" y2="720"/><line x1="0" y1="800" x2="1920" y2="800"/><line x1="0" y1="880" x2="1920" y2="880"/></g>
<g opacity=".18" stroke="#0EA5E9" fill="none" stroke-width="2"><rect x="1180" y="470" width="55" height="210"/><line x1="1155" y1="470" x2="1260" y2="470"/><rect x="1280" y="470" width="55" height="210"/><line x1="1255" y1="470" x2="1360" y2="470"/><rect x="1380" y="470" width="55" height="210"/><line x1="1355" y1="470" x2="1460" y2="470"/><rect x="1480" y="470" width="55" height="210"/><line x1="1455" y1="470" x2="1560" y2="470"/><rect x="1600" y="470" width="55" height="210"/><line x1="1575" y1="470" x2="1680" y2="470"/><line x1="1120" y1="680" x2="1200" y2="530"/><line x1="1220" y1="680" x2="1300" y2="530"/><line x1="1320" y1="680" x2="1400" y2="530"/><line x1="1420" y1="680" x2="1500" y2="530"/><line x1="1520" y1="680" x2="1600" y2="530"/><line x1="1620" y1="680" x2="1700" y2="530"/><path d="M1080 700 C1190 620 1280 635 1360 570 S1540 500 1700 560"/></g>
<g fill="#2EDAF1" opacity=".2"><circle cx="80" cy="80" r="3"/><circle cx="80" cy="240" r="3"/><circle cx="80" cy="400" r="3"/><circle cx="80" cy="560" r="3"/><circle cx="80" cy="720" r="3"/><circle cx="80" cy="880" r="3"/><circle cx="240" cy="80" r="3"/><circle cx="240" cy="240" r="3"/><circle cx="240" cy="400" r="3"/><circle cx="240" cy="560" r="3"/><circle cx="240" cy="720" r="3"/><circle cx="240" cy="880" r="3"/><circle cx="400" cy="80" r="3"/><circle cx="400" cy="240" r="3"/><circle cx="400" cy="400" r="3"/><circle cx="400" cy="560" r="3"/><circle cx="400" cy="720" r="3"/><circle cx="400" cy="880" r="3"/><circle cx="560" cy="80" r="3"/><circle cx="560" cy="240" r="3"/><circle cx="560" cy="400" r="3"/><circle cx="560" cy="560" r="3"/><circle cx="560" cy="720" r="3"/><circle cx="560" cy="880" r="3"/><circle cx="720" cy="80" r="3"/><circle cx="720" cy="240" r="3"/><circle cx="720" cy="400" r="3"/><circle cx="720" cy="560" r="3"/><circle cx="720" cy="720" r="3"/><circle cx="720" cy="880" r="3"/><circle cx="880" cy="80" r="3"/><circle cx="880" cy="240" r="3"/><circle cx="880" cy="400" r="3"/><circle cx="880" cy="560" r="3"/><circle cx="880" cy="720" r="3"/><circle cx="880" cy="880" r="3"/><circle cx="1040" cy="80" r="3"/><circle cx="1040" cy="240" r="3"/><circle cx="1040" cy="400" r="3"/><circle cx="1040" cy="560" r="3"/><circle cx="1040" cy="720" r="3"/><circle cx="1040" cy="880" r="3"/><circle cx="1200" cy="80" r="3"/><circle cx="1200" cy="240" r="3"/><circle cx="1200" cy="400" r="3"/><circle cx="1200" cy="560" r="3"/><circle cx="1200" cy="720" r="3"/><circle cx="1200" cy="880" r="3"/><circle cx="1360" cy="80" r="3"/><circle cx="1360" cy="240" r="3"/><circle cx="1360" cy="400" r="3"/><circle cx="1360" cy="560" r="3"/><circle cx="1360" cy="720" r="3"/><circle cx="1360" cy="880" r="3"/><circle cx="1520" cy="80" r="3"/><circle cx="1520" cy="240" r="3"/><circle cx="1520" cy="400" r="3"/><circle cx="1520" cy="560" r="3"/><circle cx="1520" cy="720" r="3"/><circle cx="1520" cy="880" r="3"/><circle cx="1680" cy="80" r="3"/><circle cx="1680" cy="240" r="3"/><circle cx="1680" cy="400" r="3"/><circle cx="1680" cy="560" r="3"/><circle cx="1680" cy="720" r="3"/><circle cx="1680" cy="880" r="3"/><circle cx="1840" cy="80" r="3"/><circle cx="1840" cy="240" r="3"/><circle cx="1840" cy="400" r="3"/><circle cx="1840" cy="560" r="3"/><circle cx="1840" cy="720" r="3"/><circle cx="1840" cy="880" r="3"/></g>
</svg>
